<?xml version="1.0" encoding="UTF-8" standalone="no"?>
<!DOCTYPE svg PUBLIC "-//W3C//DTD SVG 1.1//EN"
 "http://www.w3.org/Graphics/SVG/1.1/DTD/svg11.dtd">
<!-- Generated by graphviz version 2.44.1 (20200629.0846)
 -->
<!-- Title: snakemake_dag Pages: 1 -->
<svg width="488pt" height="836pt"
 viewBox="0.00 0.00 488.46 836.00" xmlns="http://www.w3.org/2000/svg" xmlns:xlink="http://www.w3.org/1999/xlink">
<g id="graph0" class="graph" transform="scale(1 1) rotate(0) translate(4 832)">
<title>snakemake_dag</title>
<polygon fill="white" stroke="transparent" points="-4,4 -4,-832 484.46,-832 484.46,4 -4,4"/>
<!-- 0 -->
<g id="node1" class="node">
<title>0</title>
<path fill="none" stroke="#d8ac56" stroke-width="2" d="M224.96,-36C224.96,-36 194.96,-36 194.96,-36 188.96,-36 182.96,-30 182.96,-24 182.96,-24 182.96,-12 182.96,-12 182.96,-6 188.96,0 194.96,0 194.96,0 224.96,0 224.96,0 230.96,0 236.96,-6 236.96,-12 236.96,-12 236.96,-24 236.96,-24 236.96,-30 230.96,-36 224.96,-36"/>
<text text-anchor="middle" x="209.96" y="-15.5" font-family="sans" font-size="10.00">export</text>
</g>
<!-- 1 -->
<g id="node2" class="node">
<title>1</title>
<path fill="none" stroke="#d86e56" stroke-width="2" d="M143.96,-324C143.96,-324 113.96,-324 113.96,-324 107.96,-324 101.96,-318 101.96,-312 101.96,-312 101.96,-300 101.96,-300 101.96,-294 107.96,-288 113.96,-288 113.96,-288 143.96,-288 143.96,-288 149.96,-288 155.96,-294 155.96,-300 155.96,-300 155.96,-312 155.96,-312 155.96,-318 149.96,-324 143.96,-324"/>
<text text-anchor="middle" x="128.96" y="-303.5" font-family="sans" font-size="10.00">refine</text>
</g>
<!-- 1&#45;&gt;0 -->
<g id="edge1" class="edge">
<title>1&#45;&gt;0</title>
<path fill="none" stroke="grey" stroke-width="2" d="M101.9,-292.09C84.4,-282.76 61.98,-268.85 45.96,-252 10.58,-214.79 -9.2,-193.35 4.96,-144 15.36,-107.73 20.29,-95.32 49.96,-72 85.92,-43.74 137.63,-30.23 172.44,-23.99"/>
<polygon fill="grey" stroke="grey" stroke-width="2" points="173.38,-27.38 182.66,-22.28 172.22,-20.48 173.38,-27.38"/>
</g>
<!-- 3 -->
<g id="node4" class="node">
<title>3</title>
<path fill="none" stroke="#56d8c9" stroke-width="2" d="M221.96,-252C221.96,-252 191.96,-252 191.96,-252 185.96,-252 179.96,-246 179.96,-240 179.96,-240 179.96,-228 179.96,-228 179.96,-222 185.96,-216 191.96,-216 191.96,-216 221.96,-216 221.96,-216 227.96,-216 233.96,-222 233.96,-228 233.96,-228 233.96,-240 233.96,-240 233.96,-246 227.96,-252 221.96,-252"/>
<text text-anchor="middle" x="206.96" y="-231.5" font-family="sans" font-size="10.00">traits</text>
</g>
<!-- 1&#45;&gt;3 -->
<g id="edge14" class="edge">
<title>1&#45;&gt;3</title>
<path fill="none" stroke="grey" stroke-width="2" d="M148.24,-287.7C157.87,-279.05 169.68,-268.45 180.18,-259.03"/>
<polygon fill="grey" stroke="grey" stroke-width="2" points="182.79,-261.39 187.9,-252.1 178.12,-256.18 182.79,-261.39"/>
</g>
<!-- 4 -->
<g id="node5" class="node">
<title>4</title>
<path fill="none" stroke="#78d856" stroke-width="2" d="M149.96,-252C149.96,-252 117.96,-252 117.96,-252 111.96,-252 105.96,-246 105.96,-240 105.96,-240 105.96,-228 105.96,-228 105.96,-222 111.96,-216 117.96,-216 117.96,-216 149.96,-216 149.96,-216 155.96,-216 161.96,-222 161.96,-228 161.96,-228 161.96,-240 161.96,-240 161.96,-246 155.96,-252 149.96,-252"/>
<text text-anchor="middle" x="133.96" y="-231.5" font-family="sans" font-size="10.00">ancestral</text>
</g>
<!-- 1&#45;&gt;4 -->
<g id="edge16" class="edge">
<title>1&#45;&gt;4</title>
<path fill="none" stroke="grey" stroke-width="2" d="M130.19,-287.7C130.74,-279.98 131.41,-270.71 132.02,-262.11"/>
<polygon fill="grey" stroke="grey" stroke-width="2" points="135.51,-262.33 132.73,-252.1 128.53,-261.83 135.51,-262.33"/>
</g>
<!-- 5 -->
<g id="node6" class="node">
<title>5</title>
<path fill="none" stroke="#9fd856" stroke-width="2" d="M55.96,-180C55.96,-180 25.96,-180 25.96,-180 19.96,-180 13.96,-174 13.96,-168 13.96,-168 13.96,-156 13.96,-156 13.96,-150 19.96,-144 25.96,-144 25.96,-144 55.96,-144 55.96,-144 61.96,-144 67.96,-150 67.96,-156 67.96,-156 67.96,-168 67.96,-168 67.96,-174 61.96,-180 55.96,-180"/>
<text text-anchor="middle" x="40.96" y="-159.5" font-family="sans" font-size="10.00">translate</text>
</g>
<!-- 1&#45;&gt;5 -->
<g id="edge18" class="edge">
<title>1&#45;&gt;5</title>
<path fill="none" stroke="grey" stroke-width="2" d="M101.72,-288.7C88.5,-279.49 73.46,-266.83 63.96,-252 52.08,-233.47 46.33,-209.07 43.54,-190.5"/>
<polygon fill="grey" stroke="grey" stroke-width="2" points="46.98,-189.8 42.22,-180.34 40.04,-190.7 46.98,-189.8"/>
</g>
<!-- 8 -->
<g id="node9" class="node">
<title>8</title>
<path fill="none" stroke="#d85656" stroke-width="2" d="M125.96,-108C125.96,-108 95.96,-108 95.96,-108 89.96,-108 83.96,-102 83.96,-96 83.96,-96 83.96,-84 83.96,-84 83.96,-78 89.96,-72 95.96,-72 95.96,-72 125.96,-72 125.96,-72 131.96,-72 137.96,-78 137.96,-84 137.96,-84 137.96,-96 137.96,-96 137.96,-102 131.96,-108 125.96,-108"/>
<text text-anchor="middle" x="110.96" y="-87.5" font-family="sans" font-size="10.00">clades</text>
</g>
<!-- 1&#45;&gt;8 -->
<g id="edge23" class="edge">
<title>1&#45;&gt;8</title>
<path fill="none" stroke="grey" stroke-width="2" d="M115.39,-287.97C108.4,-278.09 100.59,-265.05 96.96,-252 84.19,-206.15 94.49,-150.37 102.89,-117.95"/>
<polygon fill="grey" stroke="grey" stroke-width="2" points="106.27,-118.86 105.52,-108.29 99.52,-117.02 106.27,-118.86"/>
</g>
<!-- 9 -->
<g id="node10" class="node">
<title>9</title>
<path fill="none" stroke="#56d873" stroke-width="2" d="M323.46,-252C323.46,-252 264.46,-252 264.46,-252 258.46,-252 252.46,-246 252.46,-240 252.46,-240 252.46,-228 252.46,-228 252.46,-222 258.46,-216 264.46,-216 264.46,-216 323.46,-216 323.46,-216 329.46,-216 335.46,-222 335.46,-228 335.46,-228 335.46,-240 335.46,-240 335.46,-246 329.46,-252 323.46,-252"/>
<text text-anchor="middle" x="293.96" y="-231.5" font-family="sans" font-size="10.00">tip_frequencies</text>
</g>
<!-- 1&#45;&gt;9 -->
<g id="edge26" class="edge">
<title>1&#45;&gt;9</title>
<path fill="none" stroke="grey" stroke-width="2" d="M156.2,-293.44C180.05,-283.32 215.3,-268.37 244.17,-256.12"/>
<polygon fill="grey" stroke="grey" stroke-width="2" points="245.85,-259.21 253.69,-252.08 243.12,-252.77 245.85,-259.21"/>
</g>
<!-- 2 -->
<g id="node3" class="node">
<title>2</title>
<path fill="none" stroke="#d87d56" stroke-width="2" d="M300.46,-684C300.46,-684 257.46,-684 257.46,-684 251.46,-684 245.46,-678 245.46,-672 245.46,-672 245.46,-660 245.46,-660 245.46,-654 251.46,-648 257.46,-648 257.46,-648 300.46,-648 300.46,-648 306.46,-648 312.46,-654 312.46,-660 312.46,-660 312.46,-672 312.46,-672 312.46,-678 306.46,-684 300.46,-684"/>
<text text-anchor="middle" x="278.96" y="-663.5" font-family="sans" font-size="10.00">geoscheme</text>
</g>
<!-- 2&#45;&gt;0 -->
<g id="edge2" class="edge">
<title>2&#45;&gt;0</title>
<path fill="none" stroke="grey" stroke-width="2" d="M289.9,-647.53C295.64,-637.5 302.24,-624.47 305.96,-612 356.45,-442.51 394.55,-385.75 344.96,-216 324.36,-145.52 267.65,-78.27 234.65,-43.52"/>
<polygon fill="grey" stroke="grey" stroke-width="2" points="237.06,-40.97 227.6,-36.2 232.02,-45.83 237.06,-40.97"/>
</g>
<!-- 2&#45;&gt;1 -->
<g id="edge12" class="edge">
<title>2&#45;&gt;1</title>
<path fill="none" stroke="grey" stroke-width="2" d="M266.28,-647.57C259.48,-637.56 251.4,-624.52 245.96,-612 229.62,-574.43 221.96,-563.97 221.96,-523 221.96,-523 221.96,-523 221.96,-449 221.96,-401.32 184.81,-357.19 157.47,-331.17"/>
<polygon fill="grey" stroke="grey" stroke-width="2" points="159.78,-328.54 150.06,-324.32 155.03,-333.68 159.78,-328.54"/>
</g>
<!-- 2&#45;&gt;3 -->
<g id="edge15" class="edge">
<title>2&#45;&gt;3</title>
<path fill="none" stroke="grey" stroke-width="2" d="M275.11,-647.61C269.56,-620.94 259.96,-568.27 259.96,-523 259.96,-523 259.96,-523 259.96,-377 259.96,-334.21 238.57,-288.48 222.97,-260.82"/>
<polygon fill="grey" stroke="grey" stroke-width="2" points="225.99,-259.05 217.94,-252.16 219.93,-262.56 225.99,-259.05"/>
</g>
<!-- 6 -->
<g id="node7" class="node">
<title>6</title>
<path fill="none" stroke="#d8bc56" stroke-width="2" d="M416.96,-540C416.96,-540 386.96,-540 386.96,-540 380.96,-540 374.96,-534 374.96,-528 374.96,-528 374.96,-516 374.96,-516 374.96,-510 380.96,-504 386.96,-504 386.96,-504 416.96,-504 416.96,-504 422.96,-504 428.96,-510 428.96,-516 428.96,-516 428.96,-528 428.96,-528 428.96,-534 422.96,-540 416.96,-540"/>
<text text-anchor="middle" x="401.96" y="-519.5" font-family="sans" font-size="10.00">colours</text>
</g>
<!-- 2&#45;&gt;6 -->
<g id="edge20" class="edge">
<title>2&#45;&gt;6</title>
<path fill="none" stroke="grey" stroke-width="2" d="M312.51,-649.03C328.78,-639.97 347.63,-627.37 360.96,-612 376.73,-593.81 387.6,-568.52 394.16,-549.55"/>
<polygon fill="grey" stroke="grey" stroke-width="2" points="397.5,-550.6 397.28,-540.01 390.85,-548.42 397.5,-550.6"/>
</g>
<!-- 7 -->
<g id="node8" class="node">
<title>7</title>
<path fill="none" stroke="#56d0d8" stroke-width="2" d="M468.46,-612C468.46,-612 425.46,-612 425.46,-612 419.46,-612 413.46,-606 413.46,-600 413.46,-600 413.46,-588 413.46,-588 413.46,-582 419.46,-576 425.46,-576 425.46,-576 468.46,-576 468.46,-576 474.46,-576 480.46,-582 480.46,-588 480.46,-588 480.46,-600 480.46,-600 480.46,-606 474.46,-612 468.46,-612"/>
<text text-anchor="middle" x="446.96" y="-591.5" font-family="sans" font-size="10.00">coordinates</text>
</g>
<!-- 2&#45;&gt;7 -->
<g id="edge22" class="edge">
<title>2&#45;&gt;7</title>
<path fill="none" stroke="grey" stroke-width="2" d="M312.55,-651C338.87,-640.03 375.68,-624.7 404.12,-612.85"/>
<polygon fill="grey" stroke="grey" stroke-width="2" points="405.54,-616.05 413.42,-608.97 402.84,-609.59 405.54,-616.05"/>
</g>
<!-- 2&#45;&gt;9 -->
<g id="edge27" class="edge">
<title>2&#45;&gt;9</title>
<path fill="none" stroke="grey" stroke-width="2" d="M282.8,-647.61C288.35,-620.94 297.96,-568.27 297.96,-523 297.96,-523 297.96,-523 297.96,-377 297.96,-336.98 296.35,-290.64 295.17,-262.07"/>
<polygon fill="grey" stroke="grey" stroke-width="2" points="298.67,-261.89 294.75,-252.04 291.67,-262.18 298.67,-261.89"/>
</g>
<!-- 14 -->
<g id="node15" class="node">
<title>14</title>
<path fill="none" stroke="#d8d356" stroke-width="2" d="M181.96,-612C181.96,-612 151.96,-612 151.96,-612 145.96,-612 139.96,-606 139.96,-600 139.96,-600 139.96,-588 139.96,-588 139.96,-582 145.96,-576 151.96,-576 151.96,-576 181.96,-576 181.96,-576 187.96,-576 193.96,-582 193.96,-588 193.96,-588 193.96,-600 193.96,-600 193.96,-606 187.96,-612 181.96,-612"/>
<text text-anchor="middle" x="166.96" y="-591.5" font-family="sans" font-size="10.00">filter</text>
</g>
<!-- 2&#45;&gt;14 -->
<g id="edge34" class="edge">
<title>2&#45;&gt;14</title>
<path fill="none" stroke="grey" stroke-width="2" d="M251.56,-647.88C236.8,-638.66 218.43,-627.17 202.58,-617.26"/>
<polygon fill="grey" stroke="grey" stroke-width="2" points="204.41,-614.28 194.07,-611.95 200.7,-620.22 204.41,-614.28"/>
</g>
<!-- 3&#45;&gt;0 -->
<g id="edge3" class="edge">
<title>3&#45;&gt;0</title>
<path fill="none" stroke="grey" stroke-width="2" d="M207.2,-215.85C207.72,-178.83 208.94,-91.18 209.57,-46.39"/>
<polygon fill="grey" stroke="grey" stroke-width="2" points="213.07,-46.28 209.71,-36.23 206.07,-46.18 213.07,-46.28"/>
</g>
<!-- 4&#45;&gt;0 -->
<g id="edge4" class="edge">
<title>4&#45;&gt;0</title>
<path fill="none" stroke="grey" stroke-width="2" d="M140.05,-215.85C153.25,-178.68 184.59,-90.44 200.43,-45.82"/>
<polygon fill="grey" stroke="grey" stroke-width="2" points="203.79,-46.83 203.84,-36.23 197.19,-44.48 203.79,-46.83"/>
</g>
<!-- 4&#45;&gt;5 -->
<g id="edge19" class="edge">
<title>4&#45;&gt;5</title>
<path fill="none" stroke="grey" stroke-width="2" d="M110.97,-215.7C99.14,-206.8 84.56,-195.82 71.78,-186.2"/>
<polygon fill="grey" stroke="grey" stroke-width="2" points="73.78,-183.32 63.68,-180.1 69.57,-188.91 73.78,-183.32"/>
</g>
<!-- 4&#45;&gt;8 -->
<g id="edge25" class="edge">
<title>4&#45;&gt;8</title>
<path fill="none" stroke="grey" stroke-width="2" d="M131.18,-215.87C127.26,-191.67 120.06,-147.21 115.39,-118.39"/>
<polygon fill="grey" stroke="grey" stroke-width="2" points="118.79,-117.5 113.74,-108.19 111.88,-118.62 118.79,-117.5"/>
</g>
<!-- 5&#45;&gt;0 -->
<g id="edge5" class="edge">
<title>5&#45;&gt;0</title>
<path fill="none" stroke="grey" stroke-width="2" d="M43.31,-143.68C46.87,-123.9 55.4,-91.74 74.96,-72 101.35,-45.36 142.73,-31.78 172.72,-25.08"/>
<polygon fill="grey" stroke="grey" stroke-width="2" points="173.73,-28.44 182.81,-22.98 172.31,-21.59 173.73,-28.44"/>
</g>
<!-- 5&#45;&gt;8 -->
<g id="edge24" class="edge">
<title>5&#45;&gt;8</title>
<path fill="none" stroke="grey" stroke-width="2" d="M58.26,-143.7C66.82,-135.14 77.3,-124.66 86.65,-115.3"/>
<polygon fill="grey" stroke="grey" stroke-width="2" points="89.26,-117.65 93.85,-108.1 84.31,-112.7 89.26,-117.65"/>
</g>
<!-- 6&#45;&gt;0 -->
<g id="edge6" class="edge">
<title>6&#45;&gt;0</title>
<path fill="none" stroke="grey" stroke-width="2" d="M401.96,-503.95C401.96,-477.29 401.96,-424.11 401.96,-379 401.96,-379 401.96,-379 401.96,-161 401.96,-120.03 406.31,-101.57 377.96,-72 343.62,-36.18 285.32,-24.48 247.23,-20.71"/>
<polygon fill="grey" stroke="grey" stroke-width="2" points="247.32,-17.2 237.06,-19.84 246.73,-24.18 247.32,-17.2"/>
</g>
<!-- 7&#45;&gt;0 -->
<g id="edge7" class="edge">
<title>7&#45;&gt;0</title>
<path fill="none" stroke="grey" stroke-width="2" d="M448.93,-575.98C451.85,-549.36 456.96,-496.23 456.96,-451 456.96,-451 456.96,-451 456.96,-161 456.96,-114.5 439.16,-99.89 401.96,-72 355.92,-37.48 288.61,-25.45 247.13,-21.25"/>
<polygon fill="grey" stroke="grey" stroke-width="2" points="247.45,-17.76 237.17,-20.34 246.82,-24.73 247.45,-17.76"/>
</g>
<!-- 7&#45;&gt;6 -->
<g id="edge21" class="edge">
<title>7&#45;&gt;6</title>
<path fill="none" stroke="grey" stroke-width="2" d="M435.83,-575.7C430.6,-567.56 424.26,-557.69 418.48,-548.7"/>
<polygon fill="grey" stroke="grey" stroke-width="2" points="421.3,-546.62 412.95,-540.1 415.42,-550.41 421.3,-546.62"/>
</g>
<!-- 8&#45;&gt;0 -->
<g id="edge8" class="edge">
<title>8&#45;&gt;0</title>
<path fill="none" stroke="grey" stroke-width="2" d="M135.17,-71.88C147.88,-62.89 163.62,-51.76 177.38,-42.03"/>
<polygon fill="grey" stroke="grey" stroke-width="2" points="179.5,-44.82 185.64,-36.19 175.46,-39.11 179.5,-44.82"/>
</g>
<!-- 9&#45;&gt;0 -->
<g id="edge9" class="edge">
<title>9&#45;&gt;0</title>
<path fill="none" stroke="grey" stroke-width="2" d="M287.22,-215.85C272.63,-178.68 238,-90.44 220.48,-45.82"/>
<polygon fill="grey" stroke="grey" stroke-width="2" points="223.63,-44.26 216.72,-36.23 217.12,-46.82 223.63,-44.26"/>
</g>
<!-- 10 -->
<g id="node11" class="node">
<title>10</title>
<path fill="none" stroke="#56d8b1" stroke-width="2" d="M105.96,-396C105.96,-396 75.96,-396 75.96,-396 69.96,-396 63.96,-390 63.96,-384 63.96,-384 63.96,-372 63.96,-372 63.96,-366 69.96,-360 75.96,-360 75.96,-360 105.96,-360 105.96,-360 111.96,-360 117.96,-366 117.96,-372 117.96,-372 117.96,-384 117.96,-384 117.96,-390 111.96,-396 105.96,-396"/>
<text text-anchor="middle" x="90.96" y="-375.5" font-family="sans" font-size="10.00">tree</text>
</g>
<!-- 10&#45;&gt;1 -->
<g id="edge10" class="edge">
<title>10&#45;&gt;1</title>
<path fill="none" stroke="grey" stroke-width="2" d="M100.35,-359.7C104.72,-351.64 110.01,-341.89 114.85,-332.98"/>
<polygon fill="grey" stroke="grey" stroke-width="2" points="117.98,-334.56 119.67,-324.1 111.82,-331.22 117.98,-334.56"/>
</g>
<!-- 11 -->
<g id="node12" class="node">
<title>11</title>
<path fill="none" stroke="#56a9d8" stroke-width="2" d="M171.96,-540C171.96,-540 141.96,-540 141.96,-540 135.96,-540 129.96,-534 129.96,-528 129.96,-528 129.96,-516 129.96,-516 129.96,-510 135.96,-504 141.96,-504 141.96,-504 171.96,-504 171.96,-504 177.96,-504 183.96,-510 183.96,-516 183.96,-516 183.96,-528 183.96,-528 183.96,-534 177.96,-540 171.96,-540"/>
<text text-anchor="middle" x="156.96" y="-519.5" font-family="sans" font-size="10.00">align</text>
</g>
<!-- 11&#45;&gt;1 -->
<g id="edge11" class="edge">
<title>11&#45;&gt;1</title>
<path fill="none" stroke="grey" stroke-width="2" d="M154.71,-503.85C149.87,-466.83 138.4,-379.18 132.54,-334.39"/>
<polygon fill="grey" stroke="grey" stroke-width="2" points="135.98,-333.69 131.21,-324.23 129.04,-334.6 135.98,-333.69"/>
</g>
<!-- 11&#45;&gt;4 -->
<g id="edge17" class="edge">
<title>11&#45;&gt;4</title>
<path fill="none" stroke="grey" stroke-width="2" d="M160.91,-503.94C169.25,-464.89 186.18,-366.33 164.96,-288 162.38,-278.48 157.61,-268.92 152.58,-260.59"/>
<polygon fill="grey" stroke="grey" stroke-width="2" points="155.46,-258.6 147.1,-252.09 149.58,-262.39 155.46,-258.6"/>
</g>
<!-- 13 -->
<g id="node14" class="node">
<title>13</title>
<path fill="none" stroke="#d89556" stroke-width="2" d="M105.96,-468C105.96,-468 75.96,-468 75.96,-468 69.96,-468 63.96,-462 63.96,-456 63.96,-456 63.96,-444 63.96,-444 63.96,-438 69.96,-432 75.96,-432 75.96,-432 105.96,-432 105.96,-432 111.96,-432 117.96,-438 117.96,-444 117.96,-444 117.96,-456 117.96,-456 117.96,-462 111.96,-468 105.96,-468"/>
<text text-anchor="middle" x="90.96" y="-447.5" font-family="sans" font-size="10.00">mask</text>
</g>
<!-- 11&#45;&gt;13 -->
<g id="edge32" class="edge">
<title>11&#45;&gt;13</title>
<path fill="none" stroke="grey" stroke-width="2" d="M140.64,-503.7C132.65,-495.22 122.88,-484.86 114.13,-475.58"/>
<polygon fill="grey" stroke="grey" stroke-width="2" points="116.49,-472.98 107.08,-468.1 111.4,-477.78 116.49,-472.98"/>
</g>
<!-- 12 -->
<g id="node13" class="node">
<title>12</title>
<path fill="none" stroke="#5692d8" stroke-width="2" d="M256.46,-756C256.46,-756 199.46,-756 199.46,-756 193.46,-756 187.46,-750 187.46,-744 187.46,-744 187.46,-732 187.46,-732 187.46,-726 193.46,-720 199.46,-720 199.46,-720 256.46,-720 256.46,-720 262.46,-720 268.46,-726 268.46,-732 268.46,-732 268.46,-744 268.46,-744 268.46,-750 262.46,-756 256.46,-756"/>
<text text-anchor="middle" x="227.96" y="-735.5" font-family="sans" font-size="10.00">filter_metadata</text>
</g>
<!-- 12&#45;&gt;2 -->
<g id="edge13" class="edge">
<title>12&#45;&gt;2</title>
<path fill="none" stroke="grey" stroke-width="2" d="M240.56,-719.7C246.55,-711.47 253.83,-701.48 260.44,-692.42"/>
<polygon fill="grey" stroke="grey" stroke-width="2" points="263.43,-694.25 266.49,-684.1 257.78,-690.13 263.43,-694.25"/>
</g>
<!-- 12&#45;&gt;14 -->
<g id="edge33" class="edge">
<title>12&#45;&gt;14</title>
<path fill="none" stroke="grey" stroke-width="2" d="M220.6,-719.87C210.11,-695.46 190.77,-650.43 178.4,-621.64"/>
<polygon fill="grey" stroke="grey" stroke-width="2" points="181.5,-620 174.34,-612.19 175.07,-622.76 181.5,-620"/>
</g>
<!-- 13&#45;&gt;10 -->
<g id="edge28" class="edge">
<title>13&#45;&gt;10</title>
<path fill="none" stroke="grey" stroke-width="2" d="M90.96,-431.7C90.96,-423.98 90.96,-414.71 90.96,-406.11"/>
<polygon fill="grey" stroke="grey" stroke-width="2" points="94.46,-406.1 90.96,-396.1 87.46,-406.1 94.46,-406.1"/>
</g>
<!-- 14&#45;&gt;11 -->
<g id="edge29" class="edge">
<title>14&#45;&gt;11</title>
<path fill="none" stroke="grey" stroke-width="2" d="M164.48,-575.7C163.38,-567.98 162.06,-558.71 160.83,-550.11"/>
<polygon fill="grey" stroke="grey" stroke-width="2" points="164.28,-549.51 159.4,-540.1 157.35,-550.5 164.28,-549.51"/>
</g>
<!-- 15 -->
<g id="node16" class="node">
<title>15</title>
<path fill="none" stroke="#56c1d8" stroke-width="2" d="M206.46,-828C206.46,-828 145.46,-828 145.46,-828 139.46,-828 133.46,-822 133.46,-816 133.46,-816 133.46,-804 133.46,-804 133.46,-798 139.46,-792 145.46,-792 145.46,-792 206.46,-792 206.46,-792 212.46,-792 218.46,-798 218.46,-804 218.46,-804 218.46,-816 218.46,-816 218.46,-822 212.46,-828 206.46,-828"/>
<text text-anchor="middle" x="175.96" y="-807.5" font-family="sans" font-size="10.00">add_sequences</text>
</g>
<!-- 15&#45;&gt;12 -->
<g id="edge30" class="edge">
<title>15&#45;&gt;12</title>
<path fill="none" stroke="grey" stroke-width="2" d="M188.81,-791.7C194.98,-783.39 202.49,-773.28 209.28,-764.14"/>
<polygon fill="grey" stroke="grey" stroke-width="2" points="212.1,-766.22 215.25,-756.1 206.48,-762.04 212.1,-766.22"/>
</g>
<!-- 16 -->
<g id="node17" class="node">
<title>16</title>
<path fill="none" stroke="#5682d8" stroke-width="2" stroke-dasharray="5,2" d="M313.46,-828C313.46,-828 248.46,-828 248.46,-828 242.46,-828 236.46,-822 236.46,-816 236.46,-816 236.46,-804 236.46,-804 236.46,-798 242.46,-792 248.46,-792 248.46,-792 313.46,-792 313.46,-792 319.46,-792 325.46,-798 325.46,-804 325.46,-804 325.46,-816 325.46,-816 325.46,-822 319.46,-828 313.46,-828"/>
<text text-anchor="middle" x="280.96" y="-807.5" font-family="sans" font-size="10.00">merge_metadata</text>
</g>
<!-- 16&#45;&gt;12 -->
<g id="edge31" class="edge">
<title>16&#45;&gt;12</title>
<path fill="none" stroke="grey" stroke-width="2" d="M267.86,-791.7C261.57,-783.39 253.91,-773.28 246.99,-764.14"/>
<polygon fill="grey" stroke="grey" stroke-width="2" points="249.73,-761.96 240.91,-756.1 244.15,-766.19 249.73,-761.96"/>
</g>
</g>
</svg>
